<svg id="Capa_1" enable-background="new 0 0 512.007 512.007" height="512" viewBox="0 0 512.007 512.007" width="512" xmlns="http://www.w3.org/2000/svg"><g><path d="m72.003 512.007c-8.284 0-15-6.716-15-15v-25c0-8.284 6.716-15 15-15s15 6.716 15 15v25c0 8.284-6.716 15-15 15z" fill="#667197"/><path d="m440.003 512.007c-8.284 0-15-6.716-15-15v-25c0-8.284 6.716-15 15-15s15 6.716 15 15v25c0 8.284-6.716 15-15 15z" fill="#4d5788"/><path d="m167.003 208.007v120c0 8.21-6.657 15-15 15-8.28 0-15-6.72-15-15v-120c0-8.28 6.72-15 15-15s15 6.719 15 15z" fill="#dfe5f2"/><path d="m167.003 208.007v120c0 8.21-6.657 15-15 15v-150c8.28 0 15 6.719 15 15z" fill="#c7cdde"/><circle cx="152.003" cy="176.007" fill="#e27a4e" r="47"/><path d="m199.003 176.007c0 25.92-21.08 47-47 47v-94c25.92 0 47 21.08 47 47z" fill="#dc455b"/><path d="m512.003 328.007v144c0 8.28-6.72 15-15 15h-482c-8.28 0-15-6.72-15-15v-144c0-8.28 6.72-15 15-15h482c8.28 0 15 6.719 15 15z" fill="#4d5788"/><path d="m512.003 328.007v144c0 8.28-6.72 15-15 15h-241v-174h241c8.28 0 15 6.719 15 15z" fill="#313a6b"/><g fill="#c7cdde"><path d="m432.003 423.007c-8.284 0-15-6.716-15-15v-16c0-8.284 6.716-15 15-15s15 6.716 15 15v16c0 8.284-6.716 15-15 15z"/><path d="m368.003 423.007c-8.284 0-15-6.716-15-15v-16c0-8.284 6.716-15 15-15s15 6.716 15 15v16c0 8.284-6.716 15-15 15z"/><path d="m304.003 423.007c-8.284 0-15-6.716-15-15v-16c0-8.284 6.716-15 15-15s15 6.716 15 15v16c0 8.284-6.716 15-15 15z"/></g><path d="m240.003 423.007c-8.284 0-15-6.716-15-15v-16c0-8.284 6.716-15 15-15s15 6.716 15 15v16c0 8.284-6.716 15-15 15z" fill="#dfe5f2"/><path d="m230.493 118.726c-5.875 5.875-15.372 5.859-21.21 0-31.543-31.521-82.772-31.766-114.56 0-5.85 5.86-15.35 5.86-21.21 0-5.86-5.85-5.86-15.35 0-21.21 43.311-43.291 113.499-43.46 156.98 0 5.86 5.861 5.86 15.361 0 21.21z" fill="#e9bc3e"/><path d="m230.493 97.516c9.519 9.52 2.585 25.61-10.61 25.61-3.84 0-7.68-1.47-10.6-4.4-15.3-15.29-35.64-23.72-57.28-23.72v-30c29.65.001 57.52 11.55 78.49 32.51z" fill="#e58f22"/><path d="m275.743 73.476c-5.927 5.927-15.431 5.779-21.21 0-57.484-57.484-147.558-57.502-205.06 0-5.86 5.86-15.36 5.86-21.21 0-5.86-5.86-5.86-15.36 0-21.21 69.63-69.65 177.774-69.726 247.48 0 5.86 5.85 5.86 15.35 0 21.21z" fill="#9cd6f4"/><path d="m275.743 73.476c-5.927 5.927-15.431 5.779-21.21 0-28.75-28.75-65.64-43.12-102.53-43.12v-30.349c46.1 0 90.05 18.56 123.74 52.26 5.86 5.849 5.86 15.349 0 21.209z" fill="#7fa6fb"/></g></svg>